<svg width="64" height="80" viewBox="0 0 64 80" fill="none" xmlns="http://www.w3.org/2000/svg">
<path d="M45.3232 34.9096C49.4153 31.2479 51.9975 25.9282 51.9975 20.0018C51.9975 8.95317 43.0444 0 31.9958 0C20.9542 0 12.0011 8.95317 12.0011 20.0018C12.0011 25.9282 14.5762 31.2479 18.6754 34.9096C7.655 39.9612 0 51.0803 0 63.9986V80H63.9986V63.9986C63.9986 51.0803 56.3436 39.9612 45.3232 34.9096ZM20.0018 20.0018C20.0018 13.3768 25.3708 8.00071 32.0028 8.00071C38.6277 8.00071 44.0039 13.3698 44.0039 20.0018C44.0039 26.6267 38.6348 32.0028 32.0028 32.0028C25.3708 31.9958 20.0018 26.6267 20.0018 20.0018ZM55.9979 71.9993H8.00071V63.9986C8.00071 50.7487 18.7459 40.0035 31.9958 39.9965C45.2456 39.9965 55.9908 50.7417 55.9908 63.9986V71.9993H55.9979Z" fill="black"/>
</svg>
